<?xml version="1.0" standalone="no"?>
<!DOCTYPE svg PUBLIC "-//W3C//DTD SVG 20010904//EN"
 "http://www.w3.org/TR/2001/REC-SVG-20010904/DTD/svg10.dtd">
<svg version="1.0" xmlns="http://www.w3.org/2000/svg"
 width="970.000000pt" height="986.000000pt" viewBox="0 0 970.000000 986.000000"
 preserveAspectRatio="xMidYMid meet">

<g transform="translate(0.000000,986.000000) scale(0.100000,-0.100000)"
fill="#000000" stroke="none">
<path d="M0 9295 l0 -565 27 7 c44 13 140 8 169 -8 20 -10 28 -11 31 -3 2 7
13 10 24 7 11 -3 27 1 37 9 20 18 404 69 437 59 6 -2 32 -8 58 -13 46 -9 50
-8 73 18 23 24 29 26 77 20 29 -4 67 -16 85 -27 18 -10 49 -19 68 -19 19 0 34
-4 34 -10 0 -19 30 -10 46 15 25 39 75 43 118 10 25 -19 41 -25 53 -19 10 4
34 9 53 11 19 2 60 11 90 20 60 18 83 19 211 12 76 -4 92 -9 137 -38 48 -31
52 -31 85 -18 21 9 40 27 48 46 9 20 23 34 39 37 14 3 35 7 48 10 12 2 31 0
42 -6 15 -8 37 -8 80 1 47 9 63 9 75 -1 10 -9 15 -9 15 -1 0 6 7 11 15 11 9 0
15 -9 15 -25 0 -25 14 -33 25 -15 7 12 35 14 35 2 0 -4 -22 -30 -50 -57 -27
-28 -50 -54 -50 -59 0 -4 -11 -21 -25 -38 -14 -16 -25 -36 -25 -44 0 -15 -9
-17 -34 -8 -9 3 -13 10 -10 15 9 15 -23 10 -36 -6 -11 -13 -8 -15 16 -16 28 0
28 -1 6 -10 -13 -5 -28 -7 -33 -3 -5 3 -9 1 -9 -5 0 -5 -26 -15 -57 -22 -32
-6 -92 -30 -133 -52 l-76 -40 -59 28 c-145 66 -190 89 -193 97 -2 4 -8 8 -14
8 -5 0 -16 7 -24 15 -16 16 -104 21 -104 6 0 -4 12 -6 28 -3 24 5 25 3 14 -11
-26 -31 9 -59 135 -111 149 -62 152 -64 113 -87 -32 -20 -70 -73 -70 -99 0 -9
-11 -32 -25 -53 -15 -21 -21 -37 -14 -37 7 0 -19 -31 -57 -69 -73 -72 -126
-161 -164 -273 -17 -54 -13 -79 8 -42 8 15 10 15 15 0 4 -10 3 -15 -3 -11 -11
7 -11 7 -15 -77 -2 -40 2 -61 11 -69 15 -12 20 -69 6 -69 -4 0 -8 -28 -9 -62
-1 -56 0 -61 13 -43 14 18 14 18 14 -2 0 -12 -5 -23 -12 -25 -6 -2 -13 -31
-15 -64 -3 -57 -3 -58 10 -29 l14 30 7 -41 c4 -23 8 -56 8 -75 1 -39 15 -72
28 -64 5 3 11 -3 13 -12 3 -10 3 7 1 37 -3 39 -2 49 5 35 8 -16 10 -12 10 22
1 23 4 49 7 58 11 28 34 -31 35 -89 1 -61 17 -111 19 -61 2 24 6 17 22 -35 17
-53 22 -61 29 -45 6 15 8 9 9 -25 0 -60 2 -81 8 -75 5 4 26 -36 53 -102 14
-34 25 -41 31 -22 2 7 10 4 18 -7 8 -10 10 -15 4 -11 -7 4 -17 1 -23 -7 -9
-11 -8 -14 6 -12 13 1 19 -7 21 -31 4 -45 19 -41 27 7 4 22 10 40 15 40 4 0 6
-8 3 -19 -3 -10 0 -21 5 -25 5 -3 12 8 16 24 6 31 26 42 26 15 0 -8 5 -15 10
-15 6 0 10 -9 10 -19 0 -11 5 -23 10 -26 6 -3 10 -18 10 -33 0 -40 11 -73 22
-66 5 4 9 -6 7 -22 -1 -16 -1 -40 0 -54 1 -23 3 -24 15 -8 16 21 26 13 26 -19
0 -16 6 -23 18 -23 11 0 24 -10 31 -22 10 -20 11 -17 7 25 -3 46 10 68 16 25
2 -18 10 -23 36 -24 17 -1 32 2 32 7 0 24 23 4 38 -32 l18 -42 16 32 15 32 7
-33 c5 -23 9 -29 15 -20 6 10 10 7 15 -12 4 -15 10 -24 15 -22 5 3 6 -14 4
-39 -4 -32 -1 -48 11 -60 10 -10 16 -33 16 -60 0 -53 8 -75 26 -75 26 0 36 54
44 260 5 113 9 207 10 210 0 3 4 -2 10 -10 7 -12 13 -12 34 -1 15 9 37 11 60
7 l36 -7 0 43 c0 30 3 39 9 29 8 -12 16 -13 45 -4 21 7 38 7 42 2 3 -5 0 -9
-5 -9 -15 0 -14 -73 1 -88 9 -9 9 -15 0 -24 -9 -9 -12 -7 -12 10 0 19 -5 22
-40 22 -29 0 -40 -4 -40 -15 0 -8 6 -15 14 -15 17 0 32 -40 19 -49 -18 -11
-25 -62 -11 -78 10 -13 5 -21 -30 -53 -26 -24 -48 -36 -60 -34 -35 10 -60 -27
-62 -91 -2 -33 3 -73 10 -90 6 -16 17 -54 23 -82 11 -52 12 -53 47 -53 31 -1
33 -2 18 -14 -39 -29 -15 -46 63 -46 27 0 49 -4 49 -10 0 -5 -11 -10 -25 -10
-14 0 -25 -4 -25 -9 0 -5 11 -18 25 -29 14 -11 25 -25 25 -31 0 -7 28 -11 79
-11 l80 0 4 -42 4 -43 1 43 c2 40 4 42 32 42 29 0 30 -2 30 -42 0 -28 3 -38 9
-29 6 9 10 10 16 2 4 -7 2 -17 -4 -24 -11 -14 -13 -97 -1 -97 4 0 20 11 36 25
16 14 31 20 32 15 2 -6 29 -10 59 -10 47 0 54 2 44 14 -10 12 -8 17 8 25 11 6
29 11 40 11 12 0 44 24 74 54 l52 54 30 -39 c16 -22 37 -39 48 -39 24 0 67
-45 67 -70 0 -10 5 -22 10 -25 18 -11 11 -35 -21 -75 -18 -22 -33 -49 -34 -62
-1 -13 -3 -26 -4 -30 -2 -16 -40 -7 -45 10 -3 9 -2 -3 1 -27 5 -40 4 -43 -13
-36 -11 4 -31 10 -46 13 -28 4 -28 3 -28 -47 0 -39 -4 -51 -15 -51 -11 0 -15
-11 -15 -40 0 -29 4 -40 15 -40 11 0 15 11 15 40 0 29 4 40 15 40 11 0 15 -11
15 -38 0 -33 -4 -39 -30 -49 -19 -7 -30 -18 -30 -30 0 -16 -12 -22 -66 -33
-36 -8 -67 -17 -70 -22 -7 -12 -54 -10 -54 2 0 6 -4 10 -10 10 -5 0 -10 -7
-10 -15 0 -13 -23 -19 -56 -14 -14 2 -24 -28 -24 -68 0 -36 3 -43 19 -43 25 0
37 -17 15 -22 -12 -2 -5 -15 30 -52 25 -28 46 -53 46 -58 0 -11 37 -10 44 1
10 16 58 -1 68 -25 6 -13 18 -24 27 -24 15 0 31 -21 46 -61 7 -17 66 -49 90
-49 8 0 15 -4 15 -9 0 -5 15 -12 33 -16 17 -4 51 -13 75 -21 24 -8 47 -12 52
-9 4 2 34 -4 65 -15 32 -11 66 -20 77 -20 10 0 18 -4 18 -10 0 -5 18 -10 40
-10 22 0 40 5 40 10 0 6 -18 10 -40 10 -23 0 -40 5 -40 11 0 8 24 9 80 4 70
-6 80 -5 80 9 0 11 9 16 28 16 15 0 33 5 40 12 9 9 12 9 12 0 0 -8 26 -12 83
-14 70 -1 76 -2 37 -8 l-45 -7 47 -1 c43 -2 48 -5 54 -29 5 -17 3 -28 -4 -31
-7 -2 -12 -15 -12 -28 0 -21 4 -24 40 -24 28 0 40 -4 40 -14 0 -8 5 -16 10
-18 6 -2 13 -55 17 -125 5 -104 4 -126 -11 -147 -10 -16 -22 -23 -32 -19 -27
10 -64 -17 -64 -48 0 -15 -6 -29 -14 -32 -8 -3 -20 -18 -28 -34 -12 -26 -17
-28 -66 -25 -46 3 -52 2 -52 -16 0 -18 -9 -21 -80 -27 -54 -5 -80 -11 -80 -20
0 -8 -22 -14 -61 -19 -91 -9 -112 -8 -106 7 3 9 -12 10 -75 3 l-80 -10 44 -17
c48 -19 48 -23 13 -79 -30 -47 -68 -142 -90 -226 -16 -57 -20 -63 -58 -80 -23
-11 -78 -46 -122 -78 -94 -69 -407 -379 -455 -451 -19 -27 -38 -54 -42 -60 -5
-5 -14 -17 -21 -26 -7 -9 -57 -40 -112 -69 -216 -114 -325 -190 -427 -299 -42
-44 -89 -104 -106 -133 -30 -53 -281 -302 -407 -404 -59 -48 -161 -132 -220
-182 -16 -14 -76 -66 -132 -116 -56 -50 -125 -109 -155 -131 -194 -146 -449
-478 -522 -680 -10 -27 -28 -66 -41 -85 -82 -129 -128 -291 -146 -515 -9 -118
-19 -169 -66 -350 -13 -50 -30 -117 -39 -150 -8 -33 -17 -68 -20 -77 -5 -17
51 -18 1078 -18 l1083 0 120 61 c66 33 174 82 240 108 66 27 194 82 285 123
91 41 199 87 240 102 41 15 86 32 100 37 88 32 398 119 495 139 33 7 110 26
170 42 121 33 127 35 300 72 66 14 132 26 147 26 40 0 42 15 6 45 -18 15 -60
53 -93 84 -217 205 -347 300 -525 385 -299 143 -619 162 -1057 65 -134 -29
-283 -40 -348 -24 -76 19 -127 74 -140 151 l-6 41 38 6 c21 4 89 2 152 -4 63
-6 168 -9 235 -5 67 3 225 9 351 12 285 8 346 0 685 -83 36 -9 91 -29 122 -45
32 -15 65 -28 73 -28 9 0 26 -10 38 -23 12 -12 47 -40 77 -61 48 -34 307 -241
320 -256 9 -10 138 -114 177 -143 211 -155 302 -237 419 -377 61 -75 136 -180
164 -234 8 -15 23 -32 33 -37 18 -10 18 -9 1 23 -9 18 -24 38 -33 45 -9 7 -12
13 -7 13 4 0 1 11 -8 25 -9 14 -13 25 -9 25 5 0 1 5 -7 10 -8 5 -15 15 -15 22
-2 36 -27 98 -40 98 -14 0 -19 14 -18 47 1 7 -3 13 -8 13 -5 0 -9 6 -9 14 0 7
-7 19 -15 26 -8 7 -12 16 -9 21 3 5 -1 16 -10 24 -8 8 -18 35 -21 60 -4 24
-13 50 -21 56 -8 6 -14 17 -14 24 0 7 -7 16 -16 19 -9 4 -13 13 -10 24 4 11
-2 27 -14 40 -11 11 -20 28 -20 35 0 8 -7 20 -15 27 -8 7 -15 18 -15 24 0 6
-9 17 -20 24 -11 7 -20 21 -20 31 0 11 -4 23 -10 26 -5 3 -10 13 -10 21 0 8
-9 25 -21 37 -11 12 -29 38 -40 57 -11 19 -28 49 -39 65 -24 37 -53 89 -77
135 -10 20 -28 46 -40 60 -13 13 -23 30 -23 37 0 7 -4 13 -10 13 -5 0 -10 4
-10 10 0 12 -96 155 -116 170 -8 7 -14 22 -14 34 0 13 -11 32 -24 43 -13 11
-34 39 -47 62 -12 22 -26 41 -31 41 -4 0 -8 9 -8 20 0 11 -4 20 -9 20 -12 0
-131 159 -131 175 0 7 -7 16 -16 19 -8 3 -12 10 -9 16 3 5 -1 10 -9 10 -8 0
-17 8 -20 18 -6 16 -31 48 -99 122 -18 19 -41 48 -51 64 -10 15 -34 42 -53 59
-52 46 -136 135 -153 163 -8 13 -20 24 -26 24 -7 0 -14 7 -18 15 -5 13 -2 13
25 -1 39 -20 54 -14 57 22 3 35 -16 74 -36 74 -10 0 -12 3 -4 13 7 8 6 19 -3
37 -8 14 -14 31 -15 38 0 13 -54 133 -85 192 -68 130 -84 161 -98 204 -19 55
-21 79 -8 74 5 -1 47 -39 93 -84 47 -45 98 -89 114 -99 16 -10 58 -37 94 -60
100 -64 311 -163 426 -201 284 -93 599 -108 891 -44 81 18 189 52 200 64 9 9
-159 -4 -201 -15 -22 -6 -96 -14 -164 -18 -68 -4 -127 -12 -130 -18 -10 -14
-258 -27 -267 -13 -3 5 -20 10 -36 10 -44 0 -157 30 -169 46 -7 7 -18 10 -25
7 -8 -2 -51 9 -97 25 -46 17 -104 36 -131 43 -26 6 -50 16 -53 20 -3 5 -13 9
-22 9 -15 0 -180 78 -192 91 -3 3 -26 20 -52 39 -26 18 -50 41 -53 52 -4 10
-13 18 -21 18 -11 0 -13 6 -9 21 5 14 -1 27 -21 46 -28 26 -29 28 -25 125 2
77 0 98 -11 98 -17 0 -38 87 -38 155 0 28 -5 57 -10 65 -9 13 -10 13 -11 0 -1
-30 -18 25 -18 63 -1 46 -18 49 -24 5 -2 -18 -5 1 -7 42 -2 58 -4 67 -9 40 -7
-35 -7 -35 -13 -7 -3 15 -2 42 1 60 4 18 4 50 -1 72 -4 22 -7 57 -8 78 0 20
-4 37 -10 37 -5 0 -10 15 -10 34 0 19 -4 46 -10 61 -5 14 -12 45 -15 68 -3 23
-8 56 -11 72 -6 30 -5 30 33 27 57 -5 65 -5 106 3 25 5 46 3 62 -5 13 -7 31
-10 41 -6 9 3 35 -2 58 -13 29 -13 74 -21 155 -25 63 -3 117 -10 120 -15 3 -5
42 -11 86 -14 44 -4 72 -4 62 -1 -10 3 -16 11 -14 17 2 8 22 11 55 9 42 -3 52
-1 52 12 0 14 14 15 118 10 64 -4 120 -11 123 -17 4 -5 24 -8 46 -6 27 3 40 0
40 -8 0 -7 -7 -13 -14 -13 -8 0 -11 -5 -8 -10 4 -6 10 -8 14 -6 4 3 24 -12 45
-33 l37 -37 -26 -12 c-32 -15 -32 -29 0 -44 21 -9 25 -18 25 -55 0 -32 -4 -43
-15 -43 -21 0 -21 -83 0 -100 8 -7 15 -19 15 -27 0 -12 10 -14 45 -11 35 2 45
0 45 -12 0 -12 -10 -14 -45 -12 -28 3 -45 0 -45 -7 0 -6 18 -11 40 -11 27 0
40 -4 40 -13 0 -8 18 -21 40 -30 l40 -15 0 -59 c1 -50 2 -56 14 -41 7 10 18
18 23 18 10 0 23 -44 28 -92 3 -27 15 -34 15 -10 0 12 5 22 10 22 6 0 10 -18
10 -40 0 -22 -4 -40 -10 -40 -5 0 -10 -18 -10 -40 l0 -40 40 0 40 0 0 -40 0
-40 50 0 50 0 0 -39 c0 -22 -5 -42 -12 -44 -19 -8 96 -8 174 -1 61 6 68 9 79
35 15 38 22 36 42 -6 20 -41 22 -102 5 -107 -8 -3 -9 -11 -3 -24 8 -18 9 -18
12 3 7 40 39 28 51 -17 5 -23 6 -40 1 -40 -5 0 -9 -18 -9 -40 0 -31 4 -40 17
-40 14 0 14 -2 -2 -20 -18 -20 -18 -21 5 -45 14 -14 18 -25 11 -25 -7 0 -11
-6 -8 -12 2 -7 -3 -18 -12 -25 -31 -24 22 -14 74 14 164 87 340 230 593 481
112 110 162 168 200 232 45 73 52 80 52 55 0 -17 -11 -54 -25 -83 -14 -30 -25
-61 -26 -70 0 -10 -8 -35 -18 -57 -14 -32 -16 -48 -8 -85 5 -25 13 -47 17 -50
4 -3 10 -25 14 -50 3 -25 3 -39 0 -32 -11 24 -23 11 -18 -21 4 -24 -8 -61 -47
-147 -120 -268 -170 -401 -234 -625 -19 -66 -48 -167 -65 -225 -134 -451 -204
-852 -216 -1230 -6 -172 -27 -303 -56 -337 -7 -8 -7 -13 0 -13 20 0 32 30 67
166 19 76 58 193 85 259 28 66 58 140 67 165 24 72 180 376 209 411 8 8 14 20
14 25 0 33 203 308 273 370 50 44 204 128 317 172 70 28 198 52 273 52 59 0
102 5 327 41 121 20 247 47 340 74 25 7 71 21 102 30 32 9 60 21 63 26 4 5 30
16 59 24 30 9 64 25 77 36 35 30 53 21 60 -31 12 -84 -19 -121 -141 -168 -127
-50 -270 -69 -610 -82 -146 -6 -292 -15 -325 -21 -240 -43 -461 -199 -639
-452 -61 -88 -74 -107 -83 -127 -4 -8 -10 -17 -13 -20 -8 -5 -66 -127 -193
-400 -71 -154 -92 -206 -66 -170 8 11 12 12 16 3 5 -14 33 -18 33 -5 0 4 10
19 23 33 28 32 44 56 62 96 8 17 19 34 25 38 5 3 10 15 10 26 0 10 4 19 9 19
5 0 14 12 20 28 6 15 25 52 42 82 17 30 33 64 34 75 2 11 4 21 5 23 2 1 3 6 4
10 2 13 33 42 46 42 6 0 21 7 33 15 13 8 124 51 248 94 123 44 268 96 322 115
54 20 196 60 315 89 500 123 708 146 868 94 119 -38 188 -57 213 -57 54 0 182
-35 259 -71 46 -21 87 -39 91 -39 19 0 201 -190 221 -230 60 -118 117 -315
142 -490 15 -106 18 -637 5 -803 l-7 -97 375 0 375 0 0 1516 c0 1300 -2 1517
-14 1530 -8 8 -18 14 -22 14 -8 0 -93 66 -109 85 -37 43 -375 235 -413 235
-10 0 -22 4 -28 9 -5 5 -56 23 -114 41 -58 18 -130 40 -160 50 -53 18 -254 80
-390 120 -67 20 -205 61 -370 110 -52 16 -122 36 -155 45 -33 9 -123 35 -200
59 -147 46 -323 99 -390 118 -123 34 -213 81 -326 169 -20 16 -81 53 -136 81
-55 29 -127 72 -161 96 -33 23 -71 47 -84 52 -13 6 -30 14 -38 20 -8 6 -42 26
-75 45 -39 23 -79 60 -119 108 -95 117 -122 137 -225 164 -68 17 -302 53 -352
53 -20 0 -41 6 -46 13 -28 36 -76 259 -93 430 -11 119 -9 154 10 142 6 -4 10
12 11 42 2 71 12 108 30 107 9 -1 16 9 17 23 2 30 11 45 21 38 5 -2 11 14 14
36 3 26 13 46 26 56 12 8 21 25 21 38 0 13 4 26 9 30 5 3 9 19 9 36 -1 16 4
35 10 41 9 9 12 9 12 -1 0 -7 5 -9 10 -6 6 4 8 15 5 24 -7 24 4 51 22 51 11 0
13 14 12 63 -2 67 8 134 22 143 5 3 9 14 9 26 0 11 6 34 14 51 8 18 17 48 20
67 5 32 50 103 106 169 11 13 20 31 20 39 0 16 31 75 43 80 4 2 7 14 7 27 0
13 11 46 25 73 14 28 25 57 25 65 0 9 4 19 10 22 6 3 10 14 10 24 0 10 11 28
25 41 25 23 25 26 21 147 -4 102 -3 123 9 123 8 0 17 10 19 23 3 12 7 31 9 42
3 11 5 3 6 -17 1 -37 13 -49 27 -27 3 6 11 63 16 127 9 104 12 139 17 165 0 4
5 7 10 7 5 0 7 -8 4 -19 -3 -10 1 -22 8 -27 9 -5 11 -2 6 9 -3 8 1 21 9 27 8
7 14 19 14 27 0 7 7 16 15 19 8 4 15 17 15 31 0 17 7 27 21 30 15 4 17 8 8 14
-28 17 3 22 36 6 19 -9 41 -14 48 -11 8 3 20 -2 27 -11 18 -22 30 -19 30 9 0
13 5 26 11 28 17 6 0 51 -32 85 -16 18 -29 38 -29 45 0 8 -5 19 -12 26 -14 14
-20 62 -8 62 10 0 -26 88 -46 111 -8 8 -14 20 -14 26 0 6 -14 25 -30 43 -17
18 -30 40 -30 50 0 11 -5 22 -11 25 -6 5 -4 11 7 19 15 12 15 13 0 19 -9 4
-16 2 -16 -3 0 -6 -5 -10 -11 -10 -6 0 -8 8 -5 18 4 12 -5 32 -24 57 -17 21
-29 40 -27 41 2 2 35 6 73 9 112 9 114 10 114 20 -1 6 -24 9 -53 8 -47 -1 -50
0 -32 13 10 8 25 14 32 14 7 0 32 10 55 22 133 68 235 187 252 293 l6 40 -25
-53 c-14 -30 -35 -57 -49 -63 -14 -7 -27 -22 -30 -35 -4 -13 -16 -29 -28 -35
-12 -6 -32 -22 -45 -35 -13 -13 -28 -24 -33 -24 -5 0 -15 -6 -22 -13 -7 -8
-29 -17 -47 -20 l-35 -7 24 25 23 25 -24 9 c-13 5 -28 6 -33 4 -4 -3 -11 0
-15 6 -6 9 -20 9 -52 2 -28 -6 -48 -6 -54 0 -5 5 -19 9 -32 9 -13 0 -23 5 -23
10 0 6 -8 10 -19 10 -10 0 -35 14 -56 30 -29 23 -33 30 -19 31 15 0 14 2 -6
11 l-25 11 24 5 c13 2 43 2 67 0 23 -1 40 0 37 5 -2 4 9 7 25 7 35 0 92 19
110 37 7 7 20 13 28 13 8 0 14 6 14 13 0 7 12 20 28 29 30 18 242 220 242 231
0 4 9 16 21 28 12 12 18 27 14 38 -3 11 3 25 15 36 24 22 17 35 -19 35 -21 0
-43 -16 -93 -67 -86 -89 -149 -143 -166 -143 -8 0 -35 -18 -60 -41 -26 -22
-59 -43 -74 -46 -16 -3 -31 -10 -34 -14 -7 -12 -91 -11 -99 1 -4 6 -11 8 -16
4 -13 -8 -80 16 -74 26 3 4 -18 31 -47 59 -29 28 -50 51 -47 52 2 0 19 2 37 4
46 4 59 19 20 22 -18 1 -47 10 -66 19 -18 8 -40 13 -48 10 -8 -3 -14 -1 -14 3
0 5 5 11 11 13 7 2 13 19 15 37 4 29 1 32 -19 29 -13 -2 -21 2 -20 10 2 7 -7
12 -23 12 -14 0 -23 4 -20 9 3 4 18 7 33 5 19 -3 15 0 -12 9 -22 8 -39 19 -38
25 2 7 -6 12 -17 12 -31 0 -70 22 -70 39 -1 21 -29 55 -60 71 -21 11 -22 13
-5 22 9 6 26 19 36 29 21 21 55 25 61 8 3 -8 10 -6 20 5 22 21 63 21 80 -1 15
-21 115 -25 111 -5 -2 6 6 16 16 21 16 9 23 5 42 -24 18 -26 31 -35 52 -35 15
0 27 5 27 11 0 7 11 9 33 5 17 -4 49 -7 70 -6 20 0 37 -3 37 -8 0 -5 9 -19 20
-32 11 -13 20 -28 20 -35 0 -16 35 -47 43 -38 12 11 8 36 -9 54 -15 17 -14 18
12 16 23 -2 30 3 32 21 2 14 23 37 53 59 27 19 49 38 49 42 0 17 103 34 231
37 101 2 139 -1 139 -9 0 -8 3 -8 8 -2 20 28 248 11 298 -22 15 -10 33 -13 53
-8 63 14 112 13 118 -2 3 -8 9 -11 12 -6 19 26 60 40 111 38 30 -2 60 1 66 6
15 12 173 4 187 -10 17 -17 27 -13 37 15 8 21 15 25 42 22 46 -4 51 -17 17
-46 -20 -16 -37 -22 -52 -18 -14 3 -33 -1 -45 -10 -25 -17 -29 -34 -7 -34 8 0
29 -13 47 -28 46 -40 99 -62 147 -62 22 0 52 -5 66 -12 19 -9 31 -8 52 1 16 7
92 15 183 18 147 5 220 19 220 43 0 17 -31 31 -76 33 -48 2 -70 21 -36 31 29
9 82 66 82 88 0 26 18 42 63 57 28 10 45 10 65 2 15 -6 65 -12 110 -14 66 -2
87 -6 97 -20 16 -22 25 -22 25 2 0 11 -7 21 -16 23 -13 3 -13 6 -2 21 10 14
36 20 111 27 54 5 102 12 106 14 5 3 19 -6 32 -20 52 -57 164 -73 269 -39 35
11 80 17 122 16 65 -2 94 5 171 45 16 8 37 14 48 14 18 0 19 11 19 280 l0 280
-4850 0 -4850 0 0 -565z m3677 359 c-3 -3 -12 -4 -19 -1 -8 3 -5 6 6 6 11 1
17 -2 13 -5z m3113 -209 c7 -8 21 -15 31 -15 24 0 25 -19 2 -26 -10 -3 -26
-10 -35 -15 -49 -26 -119 11 -98 51 13 25 81 28 100 5z m-4497 -44 c7 -28 -32
-41 -63 -21 -13 8 -12 11 5 24 28 21 52 20 58 -3z m-1073 -86 c10 -12 10 -15
-4 -15 -9 0 -16 7 -16 15 0 8 2 15 4 15 2 0 9 -7 16 -15z m7100 -209 c0 -9 -7
-12 -20 -9 -31 8 -34 23 -6 23 16 0 26 -6 26 -14z m-6380 -31 c11 -13 4 -15
-56 -15 -76 0 -79 16 -4 23 25 2 46 4 46 5 1 1 7 -5 14 -13z m450 -279 c0 -2
-8 -10 -17 -17 -16 -13 -17 -12 -4 4 13 16 21 21 21 13z m3660 -166 c8 -5 12
-11 10 -14 -3 -2 -14 2 -24 10 -22 15 -10 19 14 4z m-4244 -157 c-5 -5 -76 24
-76 31 0 2 18 -3 40 -11 22 -9 38 -18 36 -20z m-35 -115 c-8 -23 -71 -65 -71
-48 0 11 60 69 72 70 4 0 4 -10 -1 -22z m-61 -77 c0 -5 -7 -12 -16 -15 -14 -5
-15 -4 -4 9 14 17 20 19 20 6z m4615 -141 c3 -5 -1 -10 -10 -10 -9 0 -13 5
-10 10 3 6 8 10 10 10 2 0 7 -4 10 -10z m-4775 -745 c0 -5 -5 -3 -10 5 -5 8
-10 20 -10 25 0 6 5 3 10 -5 5 -8 10 -19 10 -25z m1922 -313 c35 -15 36 -16
21 -39 -19 -29 -31 -29 -43 0 -7 19 -8 18 -8 -13 0 -19 -5 -48 -12 -65 -7 -16
-11 -59 -11 -94 1 -62 -15 -131 -31 -131 -4 0 -8 -18 -8 -40 0 -22 -4 -40 -10
-40 -5 0 -10 -6 -10 -14 0 -8 -10 -16 -22 -18 -15 -2 -24 -11 -26 -24 -4 -26
-30 -35 -79 -27 l-36 6 6 -44 c3 -24 3 -37 0 -29 -3 8 -17 23 -30 33 -15 12
-22 25 -18 37 9 28 -15 38 -74 30 -55 -7 -111 5 -134 30 -9 10 -9 13 1 17 6 3
12 13 12 24 0 16 -7 19 -40 19 -27 0 -47 7 -60 20 -25 25 -26 40 -2 40 23 0
42 19 42 42 0 27 38 23 42 -4 2 -13 6 -22 11 -20 4 1 25 2 47 2 33 0 40 3 40
20 0 11 7 20 15 20 8 0 15 6 15 14 0 7 -7 19 -15 26 -8 7 -15 23 -15 37 0 13
-5 34 -11 45 -8 14 -8 23 0 31 16 16 14 30 -3 24 -8 -3 -22 1 -33 9 -17 14
-17 14 0 28 11 8 25 12 33 9 8 -3 14 -1 14 5 0 6 38 10 98 10 85 -1 103 2 147
25 56 29 118 28 187 -1z m2814 -90 c-13 -12 -16 7 -9 54 l8 49 3 -49 c2 -26 1
-51 -2 -54z m-4469 -49 c-3 -10 -5 -4 -5 12 0 17 2 24 5 18 2 -7 2 -21 0 -30z
m1663 7 c0 -5 -7 -7 -15 -4 -8 4 -15 8 -15 10 0 2 7 4 15 4 8 0 15 -4 15 -10z
m414 -31 c-3 -5 -10 -7 -15 -3 -5 3 -7 10 -3 15 3 5 10 7 15 3 5 -3 7 -10 3
-15z m-1254 -29 c0 -5 -2 -10 -4 -10 -3 0 -8 5 -11 10 -3 6 -1 10 4 10 6 0 11
-4 11 -10z m40 -20 c0 -5 -4 -10 -10 -10 -5 0 -10 5 -10 10 0 6 5 10 10 10 6
0 10 -4 10 -10z m20 -30 c10 0 11 -3 3 -11 -14 -14 -63 -4 -63 12 0 7 9 9 23
5 12 -3 29 -6 37 -6z m-77 -17 c-7 -2 -19 -2 -25 0 -7 3 -2 5 12 5 14 0 19 -2
13 -5z m202 -44 c4 -6 5 -11 4 -13 -11 -7 -189 7 -189 15 0 13 177 11 185 -2z
m-158 -45 c-3 -3 -12 -4 -19 -1 -8 3 -5 6 6 6 11 1 17 -2 13 -5z m1403 -94
c11 -20 0 -33 -36 -44 -18 -5 -22 -1 -28 25 -3 17 -6 40 -6 49 0 17 2 17 30 3
17 -8 34 -23 40 -33z m-118 -25 c0 -5 -5 -11 -11 -13 -6 -2 -11 4 -11 13 0 9
5 15 11 13 6 -2 11 -8 11 -13z m-1146 -85 c2 0 14 6 25 13 17 10 23 9 26 -1 3
-6 9 -10 14 -6 5 3 9 -4 9 -14 0 -21 -25 -32 -77 -32 -36 0 -39 6 -21 46 10
21 14 24 16 11 2 -9 5 -17 8 -17z m-66 -20 c0 -5 -7 -10 -15 -10 -8 0 -15 5
-15 10 0 6 7 10 15 10 8 0 15 -4 15 -10z m1340 0 c0 -5 -15 -9 -32 -9 l-33 1
30 8 c17 4 31 8 33 9 1 0 2 -3 2 -9z m80 -340 c0 -6 35 -10 85 -10 80 0 88 -2
113 -27 23 -24 35 -28 77 -26 28 1 40 -1 28 -4 -22 -4 -23 -8 -23 -124 l0
-119 -26 0 c-27 0 -27 0 -20 -62 3 -34 11 -65 17 -69 6 -3 13 -47 15 -97 3
-87 26 -172 45 -172 5 0 9 -8 9 -18 0 -10 8 -25 18 -33 16 -13 20 -37 25 -140
l6 -124 -27 -28 c-23 -24 -34 -28 -72 -25 -34 2 -45 -1 -45 -12 0 -9 -10 -15
-25 -15 -15 0 -24 5 -22 13 1 7 -9 17 -23 22 -27 10 -34 40 -10 40 13 0 15 20
14 140 -2 111 1 144 12 155 18 18 13 105 -5 105 -7 0 -18 17 -24 38 -9 28 -23
45 -56 66 -25 15 -47 34 -50 42 -3 8 -12 14 -21 14 -8 0 -15 9 -15 20 0 12
-11 31 -24 43 -13 12 -26 32 -30 45 -4 12 -12 22 -17 22 -5 0 -9 7 -9 15 0 8
-4 15 -9 15 -5 0 -12 11 -15 25 -4 14 -15 34 -25 44 -24 24 -34 110 -15 135
18 25 18 36 -1 36 -8 0 -15 5 -15 10 0 6 18 10 40 10 38 0 40 2 40 30 0 28 2
30 40 30 22 0 40 -4 40 -10z m-880 -615 c0 -8 -4 -15 -10 -15 -5 0 -10 7 -10
15 0 8 5 15 10 15 6 0 10 -7 10 -15z m607 -235 c-2 -17 -6 -33 -10 -36 -3 -3
-3 -12 0 -20 3 -8 0 -21 -7 -29 -16 -19 -59 -20 -66 -1 -8 22 -44 28 -44 7 0
-31 -85 -58 -118 -37 -7 4 -25 -3 -42 -15 -26 -20 -44 -23 -147 -25 -72 -2
-122 1 -129 7 -8 7 -29 8 -53 4 -25 -4 -41 -2 -46 5 -5 7 -20 9 -39 6 -36 -7
-60 12 -90 72 -27 52 -12 61 92 56 48 -3 117 -6 153 -7 38 -2 74 -9 83 -16 14
-12 19 -11 36 4 30 28 99 37 132 17 26 -15 29 -15 51 6 30 29 87 30 94 3 8
-32 31 -32 53 -1 18 25 29 30 61 30 37 0 39 -1 36 -30z m160 -722 c-2 -13 -4
-3 -4 22 0 25 2 35 4 23 2 -13 2 -33 0 -45z m1323 -1345 c24 -21 26 -33 5 -33
-8 0 -15 7 -15 15 0 11 -11 15 -40 15 -22 0 -40 5 -40 10 0 17 68 11 90 -7z
m-195 -103 c3 -5 -3 -10 -15 -10 -12 0 -18 5 -15 10 3 6 10 10 15 10 5 0 12
-4 15 -10z"/>
<path d="M3200 6809 c0 -5 5 -7 10 -4 6 3 10 8 10 11 0 2 -4 4 -10 4 -5 0 -10
-5 -10 -11z"/>
<path d="M3265 6750 c-3 -5 3 -10 15 -10 12 0 18 5 15 10 -3 6 -10 10 -15 10
-5 0 -12 -4 -15 -10z"/>
<path d="M4050 6092 c0 -5 7 -17 15 -28 13 -16 16 -17 25 -4 17 25 11 40 -15
40 -14 0 -25 -4 -25 -8z"/>
<path d="M8925 9201 c-6 -11 25 -30 40 -25 6 2 23 -7 39 -21 16 -14 33 -25 38
-25 19 0 0 26 -38 52 -40 28 -69 35 -79 19z"/>
<path d="M9592 9103 c-22 -9 -2 -23 34 -23 35 0 46 13 18 24 -18 7 -33 7 -52
-1z"/>
<path d="M9470 9090 c0 -5 5 -10 10 -10 6 0 10 5 10 10 0 6 -4 10 -10 10 -5 0
-10 -4 -10 -10z"/>
<path d="M1721 8784 c0 -11 3 -14 6 -6 3 7 2 16 -1 19 -3 4 -6 -2 -5 -13z"/>
<path d="M6058 8783 c7 -3 16 -2 19 1 4 3 -2 6 -13 5 -11 0 -14 -3 -6 -6z"/>
<path d="M1340 8729 c0 -17 4 -28 10 -24 6 3 10 17 10 31 0 13 -4 24 -10 24
-5 0 -10 -14 -10 -31z"/>
<path d="M1008 8743 c6 -2 18 -2 25 0 6 3 1 5 -13 5 -14 0 -19 -2 -12 -5z"/>
<path d="M1236 8731 c-17 -18 -17 -20 0 -29 24 -13 11 -46 -16 -39 -11 3 -18
1 -15 -3 10 -16 -27 -29 -46 -17 -21 13 -34 4 -26 -18 7 -18 58 -20 74 -4 9 9
16 8 28 -5 25 -24 45 -20 45 9 0 14 7 36 15 49 13 19 13 28 4 50 -14 31 -39
34 -63 7z"/>
<path d="M1406 8713 c-9 -23 3 -34 25 -23 24 14 24 26 0 33 -12 3 -22 -1 -25
-10z"/>
<path d="M840 8701 c0 -20 13 -41 21 -35 15 9 10 44 -6 44 -8 0 -15 -4 -15 -9z"/>
<path d="M1331 8674 c0 -11 3 -14 6 -6 3 7 2 16 -1 19 -3 4 -6 -2 -5 -13z"/>
<path d="M1730 8640 c0 -5 7 -7 15 -4 8 4 15 8 15 10 0 2 -7 4 -15 4 -8 0 -15
-4 -15 -10z"/>
<path d="M876 8625 c-3 -8 -1 -15 4 -15 6 0 10 7 10 15 0 8 -2 15 -4 15 -2 0
-6 -7 -10 -15z"/>
<path d="M2045 8600 l-40 -7 43 -2 c23 0 42 4 42 9 0 6 -1 9 -2 9 -2 -1 -21
-5 -43 -9z"/>
<path d="M6240 8320 c0 -5 7 -10 16 -10 8 0 12 5 9 10 -3 6 -10 10 -16 10 -5
0 -9 -4 -9 -10z"/>
<path d="M6365 8260 c-4 -7 3 -8 22 -4 38 9 42 14 10 14 -14 0 -29 -5 -32 -10z"/>
<path d="M6673 8186 c-13 -7 -31 -20 -40 -28 -10 -9 -33 -23 -50 -32 -18 -9
-33 -21 -33 -26 0 -13 29 -2 65 25 17 12 48 34 69 49 39 26 31 35 -11 12z"/>
<path d="M6396 8015 c4 -8 12 -15 20 -15 20 0 17 7 -6 20 -16 9 -18 8 -14 -5z"/>
<path d="M1391 7564 c0 -11 3 -14 6 -6 3 7 2 16 -1 19 -3 4 -6 -2 -5 -13z"/>
<path d="M1822 6875 c0 -16 2 -22 5 -12 2 9 2 23 0 30 -3 6 -5 -1 -5 -18z"/>
<path d="M2466 6601 c-5 -7 -3 -18 3 -24 14 -14 20 -6 11 17 -5 15 -9 16 -14
7z"/>
<path d="M2310 6266 c0 -10 -7 -24 -15 -32 -16 -16 -21 -54 -7 -54 10 0 36 89
28 97 -3 4 -6 -1 -6 -11z"/>
<path d="M2340 6240 c0 -11 5 -20 10 -20 6 0 10 9 10 20 0 11 -4 20 -10 20 -5
0 -10 -9 -10 -20z"/>
<path d="M2266 6151 c-4 -7 -5 -15 -2 -18 9 -9 19 4 14 18 -4 11 -6 11 -12 0z"/>
<path d="M2950 5710 c-10 -6 -11 -10 -2 -10 6 0 12 -7 12 -15 0 -8 4 -15 9
-15 5 0 11 -9 14 -20 7 -28 41 -25 61 5 15 23 15 26 -4 45 -21 21 -65 26 -90
10z"/>
<path d="M2716 5639 c-9 -93 -8 -99 14 -99 18 0 20 7 20 80 0 61 -3 80 -14 80
-9 0 -15 -20 -20 -61z"/>
<path d="M3080 5661 c0 -5 3 -17 6 -25 6 -15 8 -15 20 1 19 25 17 33 -6 33
-11 0 -20 -4 -20 -9z"/>
<path d="M3959 4537 c-2 -27 -1 -51 3 -53 11 -7 14 9 8 56 l-6 45 -5 -48z"/>
<path d="M3520 4130 c0 -5 7 -10 16 -10 8 0 12 5 9 10 -3 6 -10 10 -16 10 -5
0 -9 -4 -9 -10z"/>
<path d="M3507 3768 c-3 -18 -1 -37 4 -42 5 -6 9 7 9 32 0 50 -6 54 -13 10z"/>
<path d="M3563 3580 c0 -25 2 -35 4 -22 2 12 2 32 0 45 -2 12 -4 2 -4 -23z"/>
<path d="M4748 2663 c6 -2 18 -2 25 0 6 3 1 5 -13 5 -14 0 -19 -2 -12 -5z"/>
<path d="M7635 971 c-42 -11 -107 -45 -144 -77 -63 -53 -168 -209 -219 -326
-30 -68 -14 -59 33 18 104 172 245 303 340 317 163 25 251 -123 271 -457 10
-158 22 -118 23 77 2 251 -41 376 -148 431 -35 19 -117 27 -156 17z"/>
<path d="M5880 861 c0 -16 12 -41 20 -41 4 0 5 11 2 25 -4 23 -22 36 -22 16z"/>
<path d="M7247 628 c-10 -18 -34 -60 -53 -93 -70 -116 -163 -368 -188 -502
l-5 -33 44 0 c50 0 44 -12 70 133 27 153 124 455 156 492 11 12 12 35 1 35 -5
0 -16 -15 -25 -32z"/>
<path d="M7813 193 c-28 -77 -29 -78 -66 -81 -43 -4 -45 -8 -16 -38 17 -18 19
-26 10 -42 -6 -12 -11 -23 -11 -26 0 -3 29 -6 65 -6 l65 0 0 34 c0 27 7 39 30
56 29 21 32 47 4 36 -21 -8 -34 26 -34 88 0 31 -4 56 -9 56 -4 0 -21 -35 -38
-77z"/>
<path d="M8125 143 c-16 -1 -58 -6 -92 -9 l-63 -6 0 -34 c0 -35 5 -38 48 -34
17 1 26 -6 35 -29 10 -26 17 -31 44 -31 31 0 33 2 27 26 -7 29 7 44 44 44 12
0 25 6 28 13 7 20 -13 67 -28 66 -7 -1 -26 -4 -43 -6z"/>
<path d="M7518 90 c-38 -3 -70 -9 -74 -12 -3 -3 -1 -21 3 -39 l9 -33 74 -3
c40 -2 76 1 79 6 5 8 34 16 74 20 9 1 9 33 1 55 -7 17 -44 19 -166 6z"/>
<path d="M7233 60 c-72 -11 -83 -16 -83 -40 0 -19 6 -20 136 -20 144 0 154 4
103 43 -31 22 -85 28 -156 17z"/>
</g>
</svg>
